<?xml version="1.0" ?><svg width="512px" height="512px" viewBox="0 0 512 512" baseProfile="tiny" overflow="visible" version="1.1" xml:space="preserve" xmlns="http://www.w3.org/2000/svg" xmlns:xlink="http://www.w3.org/1999/xlink"><g id="Layer_1"/><g id="Layer_2"/><g id="Layer_3"/><g id="Layer_4"/><g id="Layer_5"/><g id="Layer_6"/><g id="Layer_7"/><g id="Layer_8"/><g id="Layer_9"/><g id="Layer_10"/><g id="Layer_11"/><g id="Layer_12"/><g id="Layer_13"/><g id="Layer_14"/><g id="Layer_15"/><g id="Layer_16"/><g id="Layer_17"/><g id="Layer_18"/><g id="Layer_19"/><g id="Layer_20"/><g id="Layer_21"/><g id="Layer_22"/><g id="Layer_23"/><g id="Layer_24"/><g id="Layer_25"/><g id="Layer_26"/><g id="Layer_27"/><g id="Layer_28"/><g id="Layer_29"/><g id="Layer_30"/><g id="Layer_31"/><g id="Layer_32"/><g id="Layer_33"/><g id="Layer_34"/><g id="Layer_35"/><g id="Layer_36"/><g id="Layer_37"/><g id="Layer_38"/><g id="Layer_39"/><g id="Layer_40"/><g id="Layer_41"/><g id="Layer_42"/><g id="Layer_43"/><g id="Layer_44"/><g id="Layer_45"/><g id="Layer_46"/><g id="Layer_47"/><g id="Layer_48"/><g id="Layer_49"/><g id="Layer_50"><g><path d="M267.994,278.649c0.225,2.077-0.881,4.061-2.76,4.973c-4.047,1.965-8.282,3.854-12.715,5.688    c-2.712,1.124-5.513,2.229-8.374,3.314c-15.564,5.888-33.218,11.195-52.836,16.402l-5.415,1.42    c-3.127,0.809-6.302,1.618-9.518,2.426c-1.105,0.286-2.209,0.562-3.324,0.838c-5.178,1.292-10.484,2.584-15.899,3.886    c-6.352,1.529-12.605,2.9-18.74,4.133l-3.413,0.68c-3.363,0.651-6.687,1.262-9.981,1.825c-1.913,0.335-3.807,0.651-5.691,0.957    c-18.552,2.998-35.891,4.744-51.702,5.661h-0.01c-4.971,0.296-9.784,0.493-14.449,0.631c-4.608,0.146-9.06,0.214-13.347,0.228    c-2.16,0.007-4.08-1.379-4.731-3.438c-0.815-2.578-1.55-5.203-2.19-7.866c-7.299-30.2-2.259-60.46,11.905-85.591    c2.485-4.419,5.257-8.679,8.305-12.753c7.239-9.725,15.988-18.375,26.009-25.595h0.01c1.312-0.947,2.643-1.864,3.994-2.752    c2.772-1.834,5.642-3.551,8.591-5.148h0.01c2.357-1.292,4.754-2.505,7.21-3.629c7.151-3.294,14.725-5.928,22.685-7.811    c7.604-1.805,15.219-2.851,22.754-3.186c3.127-0.128,6.243-0.148,9.34-0.03c2.87,0.089,5.721,0.286,8.551,0.582    c2.101,0.227,4.182,0.503,6.243,0.838c12.23,1.933,23.997,5.74,34.895,11.185c4.567,2.268,8.985,4.833,13.216,7.664    c24.036,16.047,42.302,40.724,49.581,70.865C266.919,268.014,267.512,274.198,267.994,278.649z" fill="#AF602D"/><path d="M270.947,318.067c-2.377-10.679-5.675-20.919-9.764-30.678c-1.069-2.552-4.018-3.735-6.548-2.614    c-3.897,1.726-7.954,3.455-12.136,5.179c3.606,8.986,6.552,18.364,8.722,28.113c15.811,71.032-12.6,141.498-67.037,183.221    c4.226,1.187,8.504,2.226,12.827,3.112c1.357,0.278,2.777-0.033,3.893-0.852C257.298,462.141,287.047,390.396,270.947,318.067z" fill="#C76D33"/><path d="M252.507,281.706l-0.001,0.015c-0.203-0.339-0.425-0.67-0.688-0.982l-43.032-51.05l7.831-35.507    c-4.231-2.831-8.65-5.395-13.216-7.664c-0.276,0.542-0.493,1.144-0.631,1.775l-5.987,27.153l-29.342-34.806l0.996-4.823    c0.03-0.158,0.059-0.326,0.069-0.483c-2.061-0.335-4.142-0.611-6.243-0.838c-2.831-0.296-5.681-0.493-8.551-0.582    c-3.097-0.118-6.214-0.099-9.34,0.03c0.089,1.538,0.651,3.057,1.726,4.32l5.405,6.411l-12.842,62.462l-40.912-51.041l1.529-6.815    c0.335-1.509,0.187-3.008-0.345-4.34c-2.456,1.125-4.853,2.338-7.21,3.629h-0.01c-2.949,1.598-5.819,3.314-8.591,5.148    c-1.351,0.888-2.683,1.805-3.994,2.752c0.109,0.168,0.227,0.335,0.355,0.493l2.278,2.841l-9.952,44.511l-17.24-20.9    c-0.434-0.533-0.927-0.976-1.46-1.351c-3.048,4.073-5.819,8.334-8.305,12.753l22.912,27.794L53.1,327.993    c-0.266,1.193-0.227,2.387,0.069,3.492c4.665-0.138,9.478-0.335,14.449-0.631h0.01l12.023-53.783l39.679,48.121    c1.884-0.306,3.778-0.621,5.691-0.957c3.294-0.562,6.618-1.174,9.981-1.825l3.413-0.68c0.01-0.03,0.01-0.059,0.02-0.089    l8.364-40.675l26.087,32.548c0.059,0.069,0.109,0.128,0.168,0.197c1.115-0.276,2.219-0.552,3.324-0.838    c3.215-0.809,6.391-1.617,9.518-2.426l5.415-1.42l13.473-61.14l35.114,41.656l0,0l0.004,0.005l0.615,0.73    c0.003,0.004,0.007,0.007,0.011,0.011l2.371,2.805l1.658-0.618l-0.002-0.013l7.966-3.153l3.08-1.297l0.496-0.213L252.507,281.706z     M125.78,309.756l-42.046-50.972l9.883-44.186l41.168,51.366L125.78,309.756z M178.763,297.181l-28.09-35.043v-0.01l12.98-63.034    l29.115,34.54L178.763,297.181z" fill="#A05423"/><path d="M354.844,219.701c41.241,9.92,78.202,13.352,108.125,13.998c-0.385,12.198-1.99,24.536-4.971,36.871    c-17.406,72.028-75.805,123.693-144.798,136.537c-1.362,0.254-2.776-0.083-3.878-0.923    c-55.634-42.421-84.08-114.692-66.674-186.718c2.981-12.335,7.19-24.056,12.423-35.104    C281.438,196.931,314.925,210.099,354.844,219.701z" fill="#D97C41"/><path d="M158.765,316.271c-41.414,9.172-78.431,11.935-108.36,12.039c0.164,12.203,1.546,24.568,4.303,36.955    c16.1,72.332,73.554,125.044,142.303,139.135c1.357,0.278,2.777-0.033,3.894-0.853c56.393-41.407,86.141-113.151,70.042-185.48    c-2.757-12.387-6.754-24.182-11.786-35.323C232.571,294.833,198.851,307.393,158.765,316.271z" fill="#D97C41"/><path d="M479.1,222.508c-0.64,2.671-1.375,5.294-2.19,7.874c-0.651,2.06-2.573,3.447-4.734,3.439    c-4.286-0.016-8.737-0.088-13.343-0.227c-4.655-0.138-9.478-0.345-14.449-0.641h-0.01c-15.81-0.917-33.149-2.663-51.702-5.661    c-1.884-0.306-3.777-0.621-5.691-0.957c-3.284-0.562-6.618-1.174-9.981-1.835c-1.134-0.207-2.268-0.434-3.413-0.671    c-6.135-1.233-12.388-2.604-18.74-4.133c-5.365-1.292-10.622-2.643-15.751-4.054c-1.134-0.306-2.259-0.621-3.373-0.947    c-3.294-0.917-6.539-1.874-9.735-2.84c-1.854-0.562-3.679-1.134-5.504-1.706h-0.01c-17.882-5.661-34.136-11.885-48.654-18.167    c-4.576-1.983-8.975-3.965-13.206-5.948c-4.089-1.903-8.017-3.806-11.777-5.681c-1.947-0.971-3.039-3.095-2.674-5.24    c0.452-2.656,0.994-5.314,1.639-7.967c7.279-30.141,25.545-54.818,49.581-70.865c4.231-2.831,8.64-5.395,13.207-7.664    c10.899-5.444,22.665-9.251,34.905-11.184c2.061-0.335,4.142-0.612,6.243-0.838c2.831-0.296,5.681-0.493,8.551-0.582    c3.097-0.118,6.214-0.099,9.34,0.029c7.535,0.335,15.149,1.381,22.754,3.186c7.959,1.884,15.534,4.517,22.685,7.811    c2.456,1.124,4.853,2.337,7.21,3.629h0.01c2.949,1.598,5.819,3.314,8.591,5.149c1.361,0.888,2.693,1.815,4.004,2.761    c10.021,7.2,18.769,15.85,26.008,25.575c3.038,4.073,5.819,8.334,8.305,12.763C481.358,162.049,486.398,192.308,479.1,222.508z" fill="#AF602D"/><g><path d="M467.195,136.918l-22.912,27.794l-11.934,14.459l-39.679,48.121c-1.884-0.306-3.777-0.621-5.691-0.957     c-3.284-0.562-6.618-1.174-9.981-1.835c0.217-1.184,0.74-2.337,1.558-3.343l7.664-9.301l42.046-50.972l11.924-14.459     l17.24-20.909c0.434-0.533,0.927-0.976,1.46-1.361C461.928,128.228,464.71,132.489,467.195,136.918z" fill="#A05423"/></g><g><path d="M432.882,98.58c-0.118,0.168-0.237,0.335-0.365,0.493l-2.278,2.841l-11.855,14.794l-41.168,51.366     l-12.013,14.992v0.01l-26.087,32.538c-0.01,0.01-0.02,0.02-0.02,0.029c-1.134-0.306-2.259-0.621-3.373-0.947     c-3.294-0.917-6.539-1.874-9.735-2.84c-0.217-1.894,0.286-3.886,1.578-5.494l5.671-7.072l28.09-35.053l12.023-15.001     l40.902-51.041l6.026-7.526h0.01c2.949,1.598,5.819,3.314,8.591,5.149C430.239,96.707,431.57,97.634,432.882,98.58z" fill="#A05423"/></g><g><path d="M367.629,76.043c-0.089,1.539-0.651,3.058-1.726,4.32l-5.405,6.411l-12.151,14.41l-29.125,34.55v0.01     l-12.003,14.242l-35.398,41.996c-4.576-1.983-8.975-3.965-13.206-5.948c0.237-1.144,0.759-2.239,1.568-3.195l43.032-51.051     l12.003-14.242l29.342-34.806l5.178-6.145c2.831-0.296,5.681-0.493,8.551-0.582C361.386,75.896,364.502,75.915,367.629,76.043z" fill="#A05423"/></g><g><path d="M295.383,96.282l7.831,35.507l4.004,18.197l13.256,60.164h0.01c1.825,0.572,3.649,1.144,5.504,1.706     c3.196,0.967,6.44,1.923,9.735,2.841c0.326-1.144,0.385-2.387,0.108-3.63l-2.594-11.776l-14.015-63.547v-0.01l-4.004-18.187     l-5.987-27.153c-0.138-0.631-0.355-1.223-0.641-1.775L295.383,96.282z" fill="#A05423"/></g><g><path d="M386.98,226.335c-3.284-0.562-6.618-1.174-9.981-1.835c-1.134-0.207-2.268-0.434-3.413-0.671     c-0.01-0.03-0.01-0.059-0.02-0.089l-8.364-40.665v-0.01l-3.876-18.828l-12.98-63.054l-3.787-18.444l-0.996-4.823     c-0.03-0.158-0.059-0.326-0.069-0.483c2.061-0.335,4.142-0.612,6.243-0.838c2.831-0.296,5.681-0.493,8.551-0.582l2.209,10.76     l12.851,62.462l3.866,18.838l9.005,43.782l1.834,8.906C388.469,222.765,388.025,224.757,386.98,226.335z" fill="#A05423"/></g><g><path d="M458.831,233.594c-4.655-0.138-9.478-0.345-14.449-0.641h-0.01l-12.023-53.783l-4.083-18.286     l-9.883-44.176l-4.133-18.513l-1.529-6.815c-0.335-1.509-0.187-3.008,0.345-4.34c2.456,1.124,4.853,2.337,7.21,3.629h0.01     c2.949,1.598,5.819,3.314,8.591,5.149l1.361,6.095l9.952,44.511l4.093,18.286l14.617,65.381     C459.167,231.286,459.127,232.48,458.831,233.594z" fill="#A05423"/></g><g><path d="M443.374,232.891l-0.225,3.233l-0.014,0.004c-0.511,11.406-2.081,22.925-4.864,34.442     c-16.283,67.38-68.44,116.937-131.583,133.568c0.871,0.69,1.748,1.372,2.633,2.047c1.102,0.84,2.516,1.176,3.879,0.923     c68.993-12.845,127.39-64.509,144.797-136.537c2.981-12.335,4.586-24.673,4.971-36.871     C456.739,233.565,450.189,233.3,443.374,232.891z" fill="#C76D33"/></g></g><g><g><g><path d="M35.047,336.062c-0.633,0-1.266-0.001-1.898-0.003c-3.178-0.012-6.004-2.024-7.053-5.025      c-1.41-4.033-2.619-8.131-3.592-12.181c-8.315-34.403-2.206-69.716,17.204-99.426c10.072-15.418,23.624-28.738,39.188-38.519      c0.075-0.047,0.15-0.092,0.226-0.137c2.271-1.43,4.592-2.786,6.901-4.032c0.075-0.041,0.15-0.079,0.225-0.117      c9.929-5.375,20.615-9.442,31.765-12.09c10.757-2.558,21.778-3.74,32.747-3.512c3.289,0.063,6.595,0.257,9.819,0.574      c18.33,1.756,36.484,7.577,52.482,16.832c13.676,7.89,25.638,18.069,35.543,30.25c1.481,1.822,2.024,4.233,1.466,6.515      l-0.33,1.35c-4.371,18.103-5.855,36.576-4.409,54.887c0.357,4.63,0.9,9.224,1.615,13.667c0.549,3.305-1.181,6.686-4.389,8.093      c-0.443,0.194-0.887,0.387-1.33,0.564c-0.417,0.186-0.849,0.371-1.272,0.546c-3.325,1.429-6.929,2.916-10.928,4.51      c-0.082,0.036-0.165,0.07-0.249,0.104c-1.174,0.466-2.357,0.931-3.551,1.396l-0.775,0.299c-0.62,0.238-1.243,0.479-1.867,0.723      c-1.854,0.72-3.708,1.416-5.583,2.103l-0.749,0.277c-0.669,0.249-1.337,0.497-2.016,0.745c-2.03,0.733-4.067,1.46-6.125,2.187      l-1.036,0.36c-0.474,0.165-0.95,0.331-1.427,0.494c-0.183,0.069-0.366,0.133-0.549,0.194c-1.201,0.416-2.487,0.846-3.775,1.274      l-0.178,0.06c-1.314,0.448-2.686,0.902-4.068,1.347c-1.305,0.428-2.652,0.859-4.009,1.281c-1.366,0.439-2.813,0.891-4.26,1.332      c-1.053,0.329-2.167,0.664-3.283,0.997c-0.188,0.06-0.377,0.115-0.566,0.171l-0.36,0.109c-1.893,0.564-3.72,1.093-5.568,1.62      c-0.72,0.211-1.491,0.428-2.262,0.645l-0.228,0.063c-0.422,0.121-0.874,0.25-1.327,0.369c-1.142,0.32-2.285,0.631-3.437,0.941      c-1.373,0.379-2.802,0.756-4.241,1.134c-0.549,0.145-1.108,0.286-1.669,0.429l-1.129,0.289      c-1.213,0.311-2.412,0.617-3.631,0.915l-3.561,0.87c-1.28,0.31-2.539,0.606-3.786,0.893c-1.223,0.288-2.477,0.576-3.731,0.854      c-0.965,0.224-1.994,0.451-3.016,0.671c-0.215,0.053-0.424,0.099-0.644,0.143c-0.118,0.026-0.234,0.05-0.346,0.07      c-0.001,0.001-0.002,0.001-0.003,0.001c-1.104,0.244-2.235,0.485-3.366,0.718c-0.882,0.192-1.847,0.392-2.801,0.581      c-1.191,0.244-2.429,0.498-3.655,0.74l-0.958,0.185c-1.365,0.262-2.667,0.513-3.96,0.752c-1.327,0.25-2.661,0.492-3.994,0.735      l-0.44,0.08c-1.4,0.249-2.707,0.472-4.014,0.694c-1.213,0.211-2.445,0.411-3.67,0.609l-0.498,0.081      c-0.553,0.095-1.163,0.191-1.783,0.287l-0.426,0.061c-0.891,0.151-1.781,0.285-2.664,0.417l-0.186,0.028      c-0.581,0.093-1.229,0.188-1.875,0.283l-0.923,0.137c-2.898,0.428-5.928,0.843-9.024,1.233l-0.263,0.035      c-0.775,0.103-1.609,0.206-2.454,0.31c-0.054,0.007-0.108,0.013-0.163,0.018c-0.09,0.012-0.175,0.022-0.259,0.031      c-4.174,0.514-8.459,0.985-12.737,1.401c-1.184,0.12-2.391,0.233-3.587,0.337c-1,0.098-2.063,0.191-3.115,0.274      c-2.689,0.23-5.106,0.417-7.341,0.567c-2.385,0.17-4.772,0.322-7.129,0.455c-0.791,0.049-1.615,0.092-2.432,0.135l-1.402,0.075      c-1.031,0.051-2.014,0.091-2.988,0.13c-0.308,0.022-0.615,0.036-0.913,0.04c-1.871,0.079-3.713,0.148-5.535,0.207      C46.078,335.976,40.564,336.062,35.047,336.062z M99.627,316.945l0.159-0.021c0.021-0.003,0.097-0.014,0.118-0.016      c2.992-0.379,5.917-0.778,8.694-1.188l0.958-0.142c0.583-0.086,1.166-0.171,1.753-0.266l0.258-0.039      c0.821-0.123,1.649-0.246,2.477-0.388c0.058-0.01,0.116-0.019,0.174-0.027l0.43-0.061c0.476-0.074,1.007-0.157,1.546-0.25      l0.569-0.093c1.167-0.189,2.342-0.379,3.523-0.585c1.301-0.222,2.574-0.438,3.857-0.666l0.407-0.074      c1.356-0.247,2.662-0.485,3.978-0.732c1.278-0.237,2.548-0.481,3.818-0.726l1.002-0.192c1.133-0.225,2.336-0.471,3.539-0.718      c0.911-0.181,1.786-0.36,2.661-0.551c1.167-0.241,2.251-0.473,3.345-0.715c0.117-0.025,0.218-0.045,0.314-0.063      c0.059-0.013,0.117-0.024,0.174-0.036c0.12-0.031,0.229-0.055,0.35-0.08c0.991-0.213,1.993-0.434,2.994-0.665      c1.256-0.277,2.441-0.55,3.637-0.832c1.235-0.284,2.437-0.567,3.648-0.86l3.532-0.863c1.176-0.286,2.317-0.579,3.459-0.872      l1.175-0.3c0.521-0.132,1.039-0.264,1.55-0.398c1.383-0.362,2.754-0.726,4.106-1.098c1.161-0.313,2.276-0.616,3.391-0.93      c0.047-0.013,0.094-0.025,0.141-0.038c0.362-0.094,0.724-0.198,1.086-0.302l0.262-0.073c0.717-0.202,1.434-0.403,2.151-0.613      c1.842-0.526,3.615-1.039,5.367-1.561l0.852-0.257c0.033-0.011,0.067-0.021,0.101-0.031c1.07-0.32,2.141-0.641,3.201-0.973      c1.426-0.435,2.799-0.862,4.163-1.301c1.353-0.421,2.625-0.829,3.898-1.247c1.34-0.431,2.628-0.855,3.906-1.292l0.227-0.075      c1.234-0.412,2.466-0.823,3.682-1.243c0.002-0.001,0.048-0.017,0.086-0.029c0.101-0.04,0.203-0.077,0.305-0.112l2.515-0.871      c1.971-0.696,3.973-1.409,5.945-2.123c0.632-0.23,1.276-0.47,1.921-0.709l0.786-0.292c1.811-0.663,3.576-1.326,5.312-1.999      c0.625-0.246,1.28-0.498,1.93-0.749l0.739-0.284c1.098-0.429,2.207-0.864,3.307-1.3c0.067-0.029,0.136-0.058,0.206-0.086      c2.87-1.144,5.499-2.218,7.987-3.262c-0.381-3-0.691-6.036-0.926-9.081c-1.508-19.087-0.083-38.34,4.237-57.253      c-8.268-9.525-18.027-17.563-29.057-23.927c-14.155-8.188-30.207-13.336-46.427-14.891c-2.854-0.28-5.765-0.45-8.671-0.507      c-9.715-0.203-19.456,0.845-28.979,3.108c-9.95,2.362-19.47,5.996-28.299,10.801c-0.084,0.046-0.169,0.09-0.255,0.132      c-2.013,1.094-4.037,2.282-6.019,3.537c-0.083,0.053-0.167,0.104-0.252,0.153c-13.653,8.624-25.54,20.335-34.39,33.882      c-17.123,26.21-22.514,57.357-15.179,87.706c0.457,1.897,0.971,3.806,1.54,5.713c4.16-0.029,8.298-0.108,12.362-0.237      c1.811-0.059,3.646-0.128,5.51-0.207c0.105-0.005,0.211-0.007,0.317-0.007c0.121-0.011,0.229-0.019,0.351-0.023l0.116-0.005      c0.939-0.037,1.887-0.075,2.835-0.122l1.401-0.075c0.774-0.04,1.554-0.081,2.338-0.13c2.32-0.131,4.633-0.277,6.975-0.445      c2.174-0.146,4.5-0.325,7.144-0.552c1.015-0.081,1.992-0.167,2.979-0.262c1.196-0.104,2.329-0.21,3.472-0.327      c4.209-0.409,8.391-0.869,12.461-1.371c0.046-0.006,0.092-0.011,0.139-0.016c0.107-0.014,0.209-0.026,0.309-0.036      C98.097,317.142,98.853,317.048,99.627,316.945z M143.381,309.402c-0.028,0.005-0.056,0.01-0.084,0.016      C143.32,309.414,143.351,309.408,143.381,309.402L143.381,309.402z M229.379,298.643      C229.379,298.643,229.379,298.643,229.379,298.643S229.379,298.643,229.379,298.643z M229.401,298.632      c-0.001,0.001-0.003,0.002-0.004,0.003C229.398,298.634,229.4,298.633,229.401,298.632z M229.411,298.627      c-0.002,0.001-0.004,0.002-0.006,0.003C229.407,298.629,229.409,298.628,229.411,298.627z M229.422,298.622      c-0.002,0.001-0.003,0.002-0.005,0.002C229.418,298.624,229.42,298.623,229.422,298.622z M229.434,298.616      c-0.002,0.001-0.005,0.002-0.008,0.004C229.428,298.618,229.431,298.617,229.434,298.616z M200.214,293.517      c-0.004,0.002-0.008,0.004-0.012,0.006C200.206,293.52,200.21,293.519,200.214,293.517z M200.402,293.445      C200.401,293.445,200.401,293.445,200.402,293.445C200.401,293.445,200.401,293.445,200.402,293.445z"/></g><g><path d="M198.912,511.844c-0.765,0-1.533-0.071-2.294-0.214c-75-13.958-134.95-70.498-152.713-144.04      c-2.641-10.898-4.326-22.179-5.006-33.521c-0.205-3.401,0.946-6.662,3.242-9.181c2.296-2.519,5.436-3.966,8.843-4.075      c1.813-0.059,3.649-0.128,5.514-0.207c0.105-0.005,0.211-0.007,0.317-0.007c0.121-0.011,0.229-0.019,0.35-0.023l0.116-0.005      c0.939-0.037,1.887-0.075,2.835-0.122l1.401-0.075c0.774-0.04,1.554-0.081,2.338-0.13c2.32-0.131,4.633-0.277,6.975-0.445      c2.174-0.146,4.5-0.325,7.144-0.552c1.015-0.08,1.992-0.167,2.979-0.262c1.196-0.104,2.329-0.21,3.472-0.327      c4.209-0.408,8.391-0.869,12.461-1.371c0.047-0.006,0.094-0.012,0.14-0.017c0.107-0.014,0.208-0.025,0.307-0.035      c0.764-0.094,1.519-0.188,2.293-0.29l0.159-0.021c0.021-0.003,0.097-0.014,0.119-0.016c2.992-0.379,5.917-0.778,8.694-1.188      l0.958-0.143c0.582-0.085,1.166-0.17,1.753-0.265l0.258-0.039c0.821-0.123,1.649-0.246,2.477-0.388      c0.058-0.01,0.116-0.019,0.174-0.027l0.43-0.061c0.476-0.074,1.007-0.157,1.546-0.25l0.569-0.093      c1.167-0.189,2.342-0.379,3.523-0.585c1.301-0.222,2.574-0.438,3.857-0.666l0.407-0.074c1.355-0.247,2.662-0.485,3.978-0.732      c1.278-0.237,2.548-0.481,3.818-0.726l1.002-0.192c1.133-0.225,2.336-0.471,3.539-0.718c0.911-0.181,1.786-0.36,2.661-0.551      c1.167-0.241,2.251-0.473,3.345-0.715c0.117-0.025,0.218-0.045,0.314-0.063c0.059-0.013,0.117-0.024,0.174-0.036      c0.12-0.031,0.229-0.055,0.35-0.08c0.991-0.213,1.993-0.434,2.994-0.665c1.256-0.277,2.441-0.55,3.637-0.832      c1.235-0.284,2.437-0.567,3.648-0.86l3.532-0.863c1.175-0.286,2.317-0.579,3.459-0.872l1.175-0.3      c0.521-0.132,1.039-0.264,1.55-0.398c1.383-0.362,2.754-0.726,4.106-1.098c1.161-0.313,2.276-0.616,3.391-0.929      c0.047-0.014,0.094-0.026,0.141-0.039c0.362-0.094,0.724-0.198,1.086-0.302l0.262-0.073c0.717-0.202,1.434-0.403,2.151-0.613      c1.718-0.491,3.376-0.97,5.013-1.455c0.154-0.055,0.311-0.104,0.47-0.149c0.245-0.068,0.49-0.136,0.735-0.213      c0.033-0.011,0.067-0.021,0.101-0.031c1.07-0.32,2.141-0.641,3.201-0.973c1.426-0.435,2.799-0.862,4.163-1.301      c1.353-0.421,2.625-0.829,3.898-1.246c1.34-0.432,2.628-0.856,3.906-1.293l0.227-0.075c1.234-0.412,2.466-0.823,3.682-1.243      c0.002-0.001,0.048-0.017,0.087-0.03c0.101-0.039,0.203-0.076,0.305-0.111l2.515-0.871c1.971-0.696,3.973-1.409,5.945-2.123      c0.632-0.23,1.276-0.47,1.921-0.709l0.786-0.292c1.804-0.67,3.586-1.343,5.359-2.018c0.579-0.228,1.233-0.479,1.884-0.73      l0.739-0.284c1.099-0.429,2.208-0.864,3.308-1.301c0.067-0.028,0.135-0.057,0.205-0.085c4.014-1.61,7.541-3.065,10.827-4.467      c0.414-0.172,0.765-0.323,1.099-0.473c0.067-0.03,0.135-0.06,0.203-0.088c0.358-0.148,0.716-0.306,1.074-0.464      c3.788-1.671,8.217,0.046,9.889,3.836c1.671,3.79-0.046,8.218-3.836,9.889c-0.427,0.188-0.855,0.376-1.283,0.555      c-0.436,0.194-0.889,0.389-1.333,0.572c-3.292,1.405-6.889,2.889-10.922,4.507c-0.084,0.037-0.169,0.073-0.254,0.106      c-1.174,0.466-2.357,0.931-3.551,1.396l-0.775,0.299c-0.62,0.238-1.243,0.479-1.867,0.723c-1.884,0.717-3.702,1.403-5.55,2.09      l-0.782,0.29c-0.669,0.249-1.337,0.497-2.016,0.745c-2.03,0.733-4.067,1.46-6.125,2.187l-1.036,0.36      c-0.474,0.165-0.95,0.331-1.427,0.494c-0.183,0.069-0.366,0.133-0.549,0.194c-1.201,0.416-2.487,0.846-3.775,1.274l-0.178,0.06      c-1.314,0.448-2.686,0.902-4.068,1.347c-1.305,0.428-2.652,0.859-4.009,1.281c-1.366,0.439-2.813,0.891-4.26,1.332      c-1.053,0.329-2.167,0.663-3.281,0.997c-0.252,0.078-0.504,0.152-0.756,0.225c-0.085,0.028-0.17,0.056-0.257,0.081      c-1.807,0.539-3.635,1.067-5.482,1.595c-0.721,0.211-1.491,0.428-2.262,0.645l-0.228,0.063c-0.422,0.121-0.874,0.25-1.328,0.369      c-1.142,0.32-2.285,0.631-3.437,0.941c-1.373,0.379-2.802,0.756-4.241,1.134c-0.549,0.145-1.108,0.286-1.669,0.429l-1.129,0.289      c-1.213,0.311-2.412,0.617-3.631,0.915l-3.561,0.87c-1.28,0.31-2.539,0.606-3.787,0.893c-1.222,0.288-2.476,0.576-3.731,0.854      c-0.965,0.224-1.994,0.451-3.016,0.671c-0.214,0.053-0.423,0.098-0.642,0.143c-0.12,0.026-0.238,0.051-0.352,0.071      c-1.104,0.244-2.235,0.485-3.366,0.718c-0.882,0.192-1.847,0.392-2.801,0.581c-1.191,0.244-2.429,0.498-3.655,0.74l-0.958,0.185      c-1.365,0.262-2.667,0.513-3.96,0.752c-1.327,0.25-2.661,0.492-3.994,0.735l-0.44,0.08c-1.4,0.249-2.707,0.472-4.014,0.694      c-1.213,0.211-2.445,0.411-3.67,0.609l-0.498,0.081c-0.553,0.095-1.163,0.191-1.783,0.287l-0.427,0.062      c-0.891,0.15-1.781,0.284-2.664,0.416l-0.186,0.028c-0.581,0.093-1.229,0.188-1.875,0.283l-0.923,0.137      c-2.898,0.428-5.928,0.843-9.023,1.233l-0.263,0.035c-0.775,0.103-1.609,0.206-2.454,0.31c-0.054,0.007-0.107,0.013-0.161,0.018      c-0.092,0.012-0.178,0.022-0.263,0.031c-4.173,0.515-8.458,0.985-12.734,1.401c-1.184,0.12-2.391,0.233-3.587,0.337      c-1,0.098-2.063,0.191-3.115,0.274c-2.689,0.23-5.106,0.417-7.341,0.567c-2.385,0.17-4.772,0.322-7.129,0.455      c-0.791,0.049-1.615,0.092-2.432,0.135l-1.402,0.075c-1.031,0.051-2.014,0.091-2.988,0.13c-0.309,0.022-0.615,0.036-0.914,0.04      c-0.994,0.042-1.98,0.081-2.959,0.117c0.714,9.598,2.206,19.122,4.442,28.348c16.292,67.453,71.096,119.393,139.798,132.616      c40.521-31.295,65.504-78.249,68.586-128.994c0.251-4.135,3.81-7.273,7.941-7.032c4.135,0.251,7.283,3.807,7.032,7.941      c-3.368,55.467-30.835,106.75-75.359,140.699C204.284,510.962,201.617,511.843,198.912,511.844z M199.368,496.884      c0.004,0.001,0.004,0.001,0.008,0.002C199.374,496.885,199.371,496.885,199.368,496.884z M143.381,309.402      c-0.028,0.005-0.056,0.01-0.084,0.016C143.319,309.414,143.35,309.408,143.381,309.402L143.381,309.402z M229.33,298.668      c0,0-0.001,0-0.002,0.001C229.329,298.668,229.33,298.668,229.33,298.668z M229.403,298.631      c-0.023,0.012-0.046,0.023-0.069,0.035C229.358,298.654,229.381,298.643,229.403,298.631z M229.414,298.626      c-0.003,0.002-0.006,0.003-0.009,0.005C229.407,298.629,229.41,298.628,229.414,298.626z M229.422,298.622      c-0.002,0.001-0.004,0.002-0.007,0.003C229.417,298.624,229.419,298.623,229.422,298.622z M229.434,298.616      c-0.002,0.001-0.005,0.002-0.008,0.004C229.428,298.618,229.431,298.617,229.434,298.616z M200.227,293.512      c-0.008,0.004-0.017,0.007-0.025,0.011C200.21,293.519,200.219,293.516,200.227,293.512z"/></g><g><path d="M119.735,179.333c-3.384,0-6.455-2.306-7.284-5.74L97.1,110.07c-0.973-4.026,1.502-8.079,5.528-9.052      c4.028-0.979,8.08,1.502,9.052,5.528l15.351,63.522c0.973,4.026-1.502,8.079-5.528,9.052      C120.911,179.265,120.318,179.333,119.735,179.333z"/></g><g><path d="M137.386,123.953c-0.751,0-1.515-0.113-2.269-0.353l-31.048-9.847c-3.949-1.253-6.134-5.469-4.882-9.417      c1.252-3.947,5.47-6.134,9.416-4.882l31.048,9.847c3.949,1.253,6.134,5.469,4.882,9.417      C143.52,121.912,140.567,123.953,137.386,123.953z"/></g><g><path d="M125.951,328c-2.162,0-4.308-0.93-5.791-2.728l-79.966-96.97c-2.635-3.195-2.181-7.923,1.015-10.558      c3.195-2.635,7.922-2.182,10.558,1.015l79.966,96.97c2.635,3.195,2.181,7.923-1.015,10.558      C129.321,327.438,127.63,328,125.951,328z"/></g><g><path d="M177.587,312.915c-2.198,0-4.376-0.961-5.857-2.81L77.028,191.943c-2.59-3.232-2.07-7.952,1.162-10.543      c3.233-2.591,7.953-2.069,10.543,1.162l94.702,118.162c2.59,3.232,2.07,7.952-1.162,10.543      C180.889,312.376,179.232,312.915,177.587,312.915z"/></g><g><path d="M148.095,160.99h-0.01c-0.93,0.28-1.82,0.75-2.61,1.42c-3.18,2.66-3.59,7.39-0.92,10.56l2.56,3.04l2.93,3.47      l12.32,14.61l29.53,35.03l12.17,14.44l26.51,31.45l1.55,1.84c1.19,1.42,2.8,2.28,4.49,2.56h0.01c0.41,0.08,0.82,0.11,1.23,0.11      c0.99,0,1.98-0.19,2.91-0.6c0.01,0.01,0.01,0.01,0.02,0c0.67-0.28,1.31-0.67,1.9-1.17c3.17-2.67,3.57-7.4,0.9-10.56l-13.66-16.2      l-21.8-25.86l-12.17-14.44l-27.74-32.91l-2.01-2.38l-2.35-2.79l-7.82-9.28c-0.15-0.18-0.3-0.35-0.46-0.5      c-0.81-0.81-1.77-1.39-2.79-1.75L148.095,160.99z"/></g><g><path d="M211.675,177.64c-0.23-0.08-0.47-0.15-0.72-0.2c-4.04-0.9-8.04,1.66-8.93,5.71l-1.25,5.66l-4.82,21.88l-4.06,18.43      l-14.21,64.43l-1.67,7.59l-0.96,4.35c-0.63,2.86,0.46,5.7,2.58,7.43c0.88,0.72,1.94,1.25,3.13,1.51      c0.54,0.12,1.08,0.18,1.62,0.18c0.61,0,1.2-0.07,1.78-0.22c0.01,0,0.01,0,0.02,0c0.11-0.03,0.22-0.06,0.33-0.1      c0.12-0.03,0.24-0.07,0.35-0.11c2.37-0.83,4.25-2.84,4.84-5.46l2.78-12.63l11.58-52.53l4.06-18.43l6.19-28.11l2.35-10.64      c0.6-2.72-0.35-5.41-2.27-7.16L211.675,177.64z"/></g><g><path d="M129.455,324.339c-0.501,0-1.009-0.051-1.519-0.156c-4.057-0.834-6.669-4.8-5.835-8.857l30.416-147.852      c0.835-4.057,4.8-6.672,8.857-5.834c4.057,0.834,6.669,4.8,5.835,8.857l-30.416,147.852      C136.064,321.895,132.941,324.339,129.455,324.339z"/></g><g><path d="M83.795,177.98c-0.4,0.54-0.74,1.13-0.99,1.77c-0.15,0.36-0.26,0.73-0.35,1.12l-3.12,13.95l-1.07,4.8l-9.02,40.33      l-4.15,18.55l-13.93,62.3l-0.89,3.99c-0.9,4.04,1.64,8.05,5.68,8.96c0.55,0.12,1.1,0.18,1.65,0.18c3.43,0,6.53-2.37,7.31-5.86      l1.79-7.99l10.49-46.92l4.14-18.54l10.02-44.8l4.19-18.76l0.61-2.69l0.94-4.22c0.9-4.04-1.64-8.05-5.68-8.96      c-0.71-0.16-1.43-0.21-2.12-0.16L83.795,177.98z"/></g></g><g><g><path d="M476.996,236.809c-41.25,0-82.462-4.884-122.538-14.522c-39.627-9.532-78.126-23.714-114.428-42.152      c-2.854-1.449-4.473-4.55-4.032-7.721c0.583-4.191,1.379-8.387,2.366-12.468c16.584-68.628,86.392-111.1,155.616-94.669      c33.727,8.003,62.228,28.589,80.253,57.966c17.831,29.059,23.248,63.28,15.253,96.36c-0.986,4.081-2.194,8.177-3.589,12.175      c-1.048,3.002-3.875,5.017-7.055,5.028C478.23,236.808,477.61,236.809,476.996,236.809z M251.715,169.212      c33.818,16.717,69.537,29.659,106.251,38.49c37.749,9.079,76.545,13.815,115.399,14.094c0.566-1.9,1.082-3.811,1.542-5.717      c7.05-29.174,2.271-59.358-13.458-84.992c-15.924-25.952-41.115-44.141-70.932-51.217      c-61.212-14.521-122.923,22.978-137.573,83.599C252.487,165.359,252.077,167.279,251.715,169.212z"/></g><g><path d="M313.075,412.586c-2.699,0-5.365-0.881-7.552-2.54c-14.046-10.708-26.544-23.287-37.161-37.397      c-18.836-25.006-31.363-54.453-36.225-85.155c-0.062-0.388-0.092-0.78-0.092-1.173c0-4.143,3.358-7.505,7.5-7.505      c3.809,0,6.954,2.834,7.436,6.511c4.499,28.222,16.034,55.293,33.365,78.301c9.566,12.715,20.787,24.078,33.362,33.792      c68.704-13.232,123.508-65.171,139.797-132.609c2.238-9.233,3.729-18.755,4.443-28.348l-0.472-0.015      c-0.942-0.032-1.856-0.073-2.771-0.114l-7.358-0.362l-5.329-0.328c-1.654-0.111-3.319-0.233-5.014-0.365      c-0.661-0.05-1.332-0.101-2.012-0.162c-0.711-0.051-1.422-0.111-2.144-0.173l-3.108-0.271c-1.16-0.104-2.305-0.215-3.46-0.326      l-1.516-0.147c-1.034-0.104-2.081-0.21-3.129-0.322c-0.075-0.006-0.148-0.013-0.22-0.021l-3.283-0.359      c-2.31-0.267-4.595-0.539-6.909-0.841c-0.701-0.079-1.411-0.168-2.113-0.265c-0.2-0.021-0.396-0.047-0.601-0.077l-0.997-0.133      c-0.624-0.083-1.252-0.166-1.885-0.257c-0.768-0.102-1.616-0.222-2.474-0.343l-0.671-0.095      c-0.012-0.001-0.107-0.016-0.119-0.017l-1.163-0.17c-0.782-0.111-1.601-0.235-2.426-0.36l-2.729-0.425      c-0.289-0.038-0.586-0.085-0.873-0.132c-0.549-0.082-1.178-0.187-1.808-0.291c-1.222-0.191-2.495-0.408-3.775-0.627      l-0.305-0.053c-1.494-0.25-3.02-0.515-4.556-0.788c-1.32-0.234-2.659-0.48-4.008-0.735c-1.4-0.26-2.838-0.535-4.286-0.82      c-0.597-0.112-1.26-0.245-1.93-0.38l-0.176-0.036c-0.081-0.016-0.162-0.033-0.242-0.053c-0.118-0.023-0.223-0.045-0.323-0.066      c-1.291-0.251-2.581-0.513-3.872-0.791c-0.629-0.127-1.259-0.261-1.895-0.396l-0.234-0.05c-0.562-0.116-1.167-0.249-1.772-0.382      l-0.89-0.195c-0.012-0.002-0.023-0.005-0.035-0.008c-0.041-0.008-0.082-0.017-0.122-0.025c-0.146-0.028-0.289-0.061-0.429-0.096      c-0.864-0.186-1.744-0.38-2.624-0.583c-1.19-0.263-2.442-0.55-3.705-0.848c-1.206-0.276-2.464-0.573-3.731-0.88l-3.588-0.877      c-1.205-0.294-2.403-0.601-3.602-0.907l-1.099-0.281c-0.579-0.147-1.155-0.294-1.723-0.443c-1.426-0.374-2.857-0.752-4.267-1.14      c-1.12-0.303-2.263-0.613-3.407-0.935c-0.452-0.119-0.903-0.247-1.354-0.376l-0.195-0.055c-0.771-0.217-1.541-0.434-2.312-0.659      c-1.8-0.515-3.626-1.042-5.433-1.58c-0.086-0.025-0.172-0.053-0.257-0.081c-0.271-0.077-0.541-0.157-0.812-0.242      c-1.031-0.309-2.157-0.646-3.273-0.994c-1.398-0.426-2.844-0.878-4.279-1.338c-1.293-0.401-2.642-0.834-3.991-1.277      c-1.33-0.427-2.703-0.881-4.064-1.345c-1.302-0.434-2.647-0.883-3.973-1.341c-0.142-0.048-0.311-0.106-0.489-0.174      c-0.467-0.16-0.935-0.323-1.4-0.485l-1.008-0.351c-2.087-0.727-4.136-1.466-6.154-2.196c-4.74-1.731-9.633-3.597-14.563-5.552      c-0.08-0.031-0.158-0.064-0.237-0.099c-1.786-0.715-3.488-1.403-5.171-2.093c-1.619-0.661-3.213-1.325-4.796-2      c-0.917-0.389-1.849-0.783-2.77-1.179c-3.257-1.409-6.21-2.715-9.046-4c-0.708-0.311-1.478-0.663-2.238-1.018      c-0.059-0.026-0.117-0.052-0.176-0.078c-3.564,8.42-6.492,17.169-8.715,26.047c-1.007,4.019-5.079,6.462-9.098,5.453      c-4.018-1.007-6.459-5.08-5.453-9.098c2.635-10.52,6.182-20.872,10.541-30.771c1.357-3.088,3.843-5.455,6.998-6.657      c3.057-1.166,6.374-1.095,9.37,0.197c0.152,0.062,0.303,0.129,0.45,0.2c0.742,0.349,1.493,0.696,2.251,1.034      c0.037,0.017,0.073,0.033,0.11,0.051c0.683,0.317,1.375,0.636,2.076,0.944c2.831,1.282,5.707,2.554,8.867,3.92      c0.88,0.378,1.788,0.763,2.696,1.147c1.531,0.652,3.057,1.288,4.612,1.923c1.698,0.695,3.409,1.388,5.14,2.081      c0.079,0.03,0.168,0.067,0.262,0.107c4.756,1.884,9.47,3.681,14.016,5.341c1.939,0.701,3.931,1.421,5.942,2.121l1.036,0.36      c0.485,0.169,0.973,0.339,1.46,0.505c0.102,0.035,0.203,0.072,0.303,0.111c0.033,0.011,0.07,0.023,0.084,0.028      c1.275,0.44,2.57,0.872,3.864,1.305c1.322,0.449,2.609,0.876,3.907,1.292c1.323,0.435,2.594,0.842,3.875,1.24      c1.431,0.459,2.806,0.888,4.181,1.308c1.111,0.346,2.185,0.668,3.259,0.99c0.34,0.106,0.585,0.174,0.83,0.242      c0.159,0.045,0.316,0.095,0.471,0.149c1.638,0.485,3.294,0.963,4.966,1.441c0.764,0.224,1.481,0.425,2.198,0.627l0.229,0.064      c0.4,0.114,0.767,0.219,1.135,0.315c0.042,0.011,0.083,0.022,0.125,0.033c1.115,0.313,2.23,0.616,3.356,0.921      c1.385,0.381,2.755,0.743,4.134,1.104c0.539,0.142,1.07,0.276,1.604,0.412l1.143,0.292c1.127,0.289,2.269,0.582,3.43,0.864      l3.56,0.87c1.199,0.29,2.401,0.573,3.594,0.848c1.239,0.292,2.426,0.563,3.614,0.827c0.931,0.215,1.799,0.405,2.648,0.586      c0.082,0.018,0.163,0.036,0.244,0.057c0.006,0.001,0.013,0.003,0.02,0.004c0.077,0.016,0.152,0.032,0.229,0.05l0.876,0.191      c0.542,0.119,1.082,0.239,1.618,0.35l0.273,0.058c0.603,0.128,1.2,0.255,1.796,0.374c0.037,0.008,0.074,0.016,0.11,0.023      c1.237,0.268,2.473,0.518,3.709,0.757c0.097,0.019,0.193,0.04,0.289,0.062c0.133,0.026,0.249,0.05,0.36,0.074l0.09,0.019      c0.609,0.122,1.21,0.244,1.812,0.357c1.457,0.287,2.838,0.551,4.21,0.806c1.318,0.25,2.6,0.484,3.871,0.71      c1.493,0.267,2.967,0.521,4.432,0.768l0.327,0.056c1.213,0.207,2.418,0.413,3.623,0.603c0.643,0.106,1.202,0.199,1.761,0.283      c0.235,0.038,0.395,0.065,0.547,0.085c0.083,0.01,0.165,0.021,0.247,0.035l1,0.155c0.42,0.065,0.839,0.13,1.255,0.197      l0.473,0.071c0.781,0.118,1.557,0.236,2.333,0.347l1.895,0.273c0.818,0.115,1.627,0.229,2.436,0.337      c0.655,0.094,1.227,0.169,1.795,0.244l1.112,0.149c0,0,0.064,0.009,0.112,0.016c0.108,0.011,0.217,0.023,0.325,0.038      c0.643,0.091,1.295,0.172,1.938,0.244c0.043,0.005,0.085,0.011,0.128,0.016c2.264,0.295,4.497,0.562,6.711,0.817l3.068,0.336      c0.067,0.005,0.133,0.011,0.198,0.019c1.07,0.115,2.141,0.224,3.197,0.33l1.512,0.146c1.064,0.103,2.174,0.211,3.275,0.31      l3.081,0.268c0.661,0.057,1.325,0.113,1.991,0.16c0.047,0.004,0.095,0.008,0.143,0.012c0.63,0.057,1.251,0.104,1.872,0.15      c1.668,0.13,3.284,0.248,4.889,0.357l12.337,0.67c0.871,0.039,1.732,0.078,2.584,0.107l2.984,0.097      c0.23,0.004,0.456,0.018,0.677,0.039c3.234,0.258,6.19,1.729,8.35,4.163c2.221,2.503,3.332,5.723,3.126,9.065      c-0.678,11.329-2.363,22.609-5.007,33.518c-17.762,73.536-77.711,130.076-152.726,144.036      C314.6,412.515,313.836,412.586,313.075,412.586z M312.606,397.628c-0.003,0-0.006,0.001-0.009,0.001      C312.602,397.629,312.602,397.629,312.606,397.628z M410.558,217.462c0.003,0.001,0.006,0.001,0.01,0.001      C410.564,217.463,410.561,217.463,410.558,217.462z M368.698,210.198c0.003,0.002,0.007,0.003,0.011,0.004      C368.704,210.201,368.701,210.2,368.698,210.198z M367.658,209.938c0.002,0,0.005,0,0.007,0.001      C367.663,209.938,367.66,209.938,367.658,209.938z M283.035,199.577c0.028,0.012,0.056,0.023,0.085,0.034      C283.091,199.601,283.063,199.589,283.035,199.577z M282.704,199.429c0.003,0.002,0.006,0.003,0.009,0.005      C282.709,199.432,282.706,199.431,282.704,199.429z M282.686,199.421c0.005,0.002,0.01,0.004,0.015,0.007      C282.696,199.425,282.691,199.423,282.686,199.421z M311.779,194.259c0.003,0.002,0.005,0.003,0.008,0.004      C311.785,194.262,311.782,194.26,311.779,194.259z"/></g><g><g><path d="M392.254,80.075c-0.583,0-1.175-0.068-1.768-0.212c-4.026-0.973-6.501-5.025-5.528-9.052l15.351-63.523       c0.973-4.026,5.024-6.507,9.052-5.528c4.026,0.973,6.501,5.025,5.528,9.052l-15.351,63.523       C398.709,77.769,395.638,80.075,392.254,80.075z"/></g></g><g><g><path d="M374.603,24.695c-3.182,0-6.134-2.041-7.147-5.235c-1.252-3.948,0.934-8.164,4.882-9.416l31.048-9.846       c3.948-1.253,8.165,0.935,9.416,4.883c1.252,3.948-0.934,8.164-4.882,9.416l-31.048,9.846       C376.118,24.581,375.354,24.695,374.603,24.695z"/></g></g><g><path d="M386.038,228.741c-1.68,0-3.37-0.562-4.767-1.714c-3.196-2.635-3.65-7.362-1.015-10.558l79.966-96.97      c2.635-3.196,7.362-3.65,10.558-1.015c3.196,2.635,3.65,7.362,1.015,10.558l-79.966,96.97      C390.346,227.812,388.201,228.741,386.038,228.741z"/></g><g><path d="M334.402,213.656c-1.646,0-3.302-0.538-4.686-1.647c-3.232-2.591-3.752-7.311-1.162-10.543l94.702-118.161      c2.59-3.232,7.311-3.754,10.543-1.162c3.232,2.591,3.752,7.311,1.162,10.543L340.26,210.847      C338.778,212.695,336.6,213.656,334.402,213.656z"/></g><g><path d="M359.124,61.85c-1,0.36-1.93,0.93-2.72,1.72c-0.15,0.15-0.31,0.32-0.45,0.49l-10.17,12.07l-2.05,2.42l-27.7,32.87      l-12.17,14.44l-41.03,48.67l-0.01,0.01l-2.59,3.08c-2.67,3.17-2.27,7.9,0.9,10.57c1.4,1.19,3.12,1.77,4.83,1.77      c2.13,0,4.25-0.91,5.73-2.67l5.39-6.39l0.01-0.01l30.83-36.58l12.17-14.44l29.53-35.04l12.32-14.61l2.92-3.46l2.56-3.04      c2.67-3.16,2.27-7.89-0.9-10.56c-0.77-0.66-1.64-1.13-2.56-1.41L359.124,61.85z"/></g><g><path d="M329.605,215.352c-3.443,0-6.545-2.386-7.317-5.888L295.321,87.119c-0.892-4.045,1.665-8.047,5.71-8.938      c4.043-0.894,8.047,1.664,8.938,5.71l26.967,122.345c0.892,4.045-1.665,8.047-5.71,8.938      C330.683,215.294,330.14,215.352,329.605,215.352z"/></g><g><path d="M382.534,225.081c-3.485,0-6.608-2.443-7.338-5.99L344.779,71.238c-0.834-4.058,1.778-8.023,5.835-8.857      c4.058-0.837,8.023,1.777,8.857,5.834l30.416,147.853c0.834,4.058-1.778,8.023-5.835,8.857      C383.543,225.03,383.035,225.081,382.534,225.081z"/></g><g><path d="M422.764,75.78c-0.72-0.06-1.45-0.01-2.19,0.15c-4.04,0.91-6.58,4.92-5.68,8.96l0.94,4.19l0.61,2.72l4.19,18.77      l10.02,44.79l4.14,18.54l10.49,46.9v0.02l1.79,7.99c0.78,3.49,3.88,5.86,7.31,5.86c0.55,0,1.1-0.06,1.65-0.18      c4.04-0.9,6.58-4.91,5.68-8.96l-0.89-3.98l-13.93-62.31l-4.15-18.54l-9.04-40.43l-1.05-4.7l-3.12-13.95      c-0.09-0.39-0.21-0.77-0.35-1.13c-0.27-0.67-0.62-1.29-1.06-1.84L422.764,75.78z"/></g></g></g></g></svg>