<?xml version="1.0" encoding="iso-8859-1"?>
<!-- Generator: Adobe Illustrator 19.0.0, SVG Export Plug-In . SVG Version: 6.00 Build 0)  -->
<svg xmlns="http://www.w3.org/2000/svg" xmlns:xlink="http://www.w3.org/1999/xlink" version="1.1" id="Capa_1" x="0px" y="0px" viewBox="0 0 502.479 502.479" style="enable-background:new 0 0 502.479 502.479;" xml:space="preserve" width="512" height="512">
<g>
	<path style="fill:#FABA45;" d="M383.883,238.948h79.268c17.579,0,31.829-14.251,31.829-31.829v-4.103   c0-93.916-76.134-170.051-170.051-170.051H177.551C83.635,32.965,7.5,109.1,7.5,203.016v4.103c0,17.578,14.25,31.829,31.829,31.829   h324.552"/>
	<path style="fill:#E95B2D;" d="M180.498,238.948v159.823c0,39.07,31.672,70.743,70.742,70.743   c39.068,0,70.741-31.673,70.741-70.743V238.948H180.498z"/>
	<path style="fill:#E95B2D;" d="M324.929,32.965h-1.73c-0.796,5.782-1.217,11.685-1.217,17.685   c0,70.974,57.534,128.509,128.509,128.509c14.598,0,28.625-2.439,41.703-6.924C477.707,93.014,408.334,32.965,324.929,32.965z"/>
	<circle style="fill:#E95B2D;" cx="249.445" cy="150.277" r="50.106"/>
	<circle style="fill:#E95B2D;" cx="140.945" cy="103.748" r="27.763"/>
	<path style="fill:#E95B2D;" d="M21.801,134.684c-0.002,0.005-0.004,0.009-0.006,0.014c-0.567,1.291-1.119,2.591-1.655,3.899   c-0.01,0.023-0.021,0.049-0.03,0.073c-0.526,1.287-1.037,2.581-1.533,3.884c-0.018,0.05-0.036,0.099-0.055,0.147   c-0.485,1.275-0.953,2.558-1.407,3.847c-0.027,0.078-0.056,0.156-0.083,0.234c-0.44,1.258-0.866,2.521-1.277,3.791   c-0.036,0.113-0.074,0.227-0.11,0.34c-0.396,1.232-0.778,2.473-1.147,3.718c-0.045,0.152-0.092,0.304-0.136,0.455   c-0.352,1.205-0.69,2.414-1.019,3.629c-0.053,0.196-0.108,0.391-0.159,0.588c-0.311,1.171-0.607,2.349-0.894,3.53   c-0.059,0.239-0.118,0.477-0.175,0.717c-0.271,1.141-0.528,2.285-0.776,3.435c-0.061,0.282-0.124,0.564-0.184,0.847   c-0.233,1.107-0.451,2.218-0.662,3.332c-0.063,0.327-0.129,0.652-0.188,0.98c-0.197,1.073-0.379,2.153-0.557,3.233   c-0.061,0.369-0.125,0.736-0.183,1.105c-0.163,1.041-0.312,2.087-0.456,3.134c-0.056,0.411-0.118,0.821-0.172,1.234   c-0.133,1.012-0.247,2.029-0.361,3.047c-0.05,0.448-0.106,0.896-0.154,1.344c-0.101,0.991-0.188,1.987-0.273,2.983   c-0.041,0.477-0.09,0.952-0.127,1.43c-0.078,0.993-0.137,1.991-0.197,2.988c-0.028,0.482-0.066,0.962-0.092,1.445   c-0.053,1.046-0.088,2.097-0.124,3.148c-0.015,0.437-0.038,0.87-0.05,1.307c-0.038,1.486-0.059,2.978-0.059,4.473v4.103   c0,17.578,14.25,31.829,31.829,31.829h73.406C112.735,185.679,73.154,141.663,21.801,134.684z"/>
	<path style="fill:#0F2639;" d="M500.607,177.279l0.125-0.043l-1.161-6.35c-13.757-75.23-73.778-132.039-147.538-143.354   c-0.177-0.027-0.354-0.05-0.53-0.077c-1.195-0.18-2.394-0.349-3.597-0.505c-0.416-0.054-0.834-0.103-1.252-0.153   c-0.974-0.119-1.948-0.232-2.926-0.336c-0.508-0.054-1.016-0.103-1.525-0.152c-0.902-0.088-1.808-0.168-2.714-0.242   c-0.542-0.044-1.085-0.088-1.628-0.127c-0.896-0.065-1.793-0.12-2.692-0.171c-0.54-0.031-1.079-0.065-1.621-0.091   c-0.965-0.046-1.933-0.079-2.901-0.11c-0.467-0.015-0.934-0.035-1.402-0.047c-1.436-0.034-2.873-0.055-4.315-0.055h-8.269H177.551   c-70.523,0-131.572,41.333-160.203,101.044l-0.363-0.049l-2.11,5.344c-0.573,1.308-1.131,2.623-1.659,3.912l-0.048,0.115   c-0.549,1.344-1.082,2.693-1.6,4.054l-0.055,0.147c-0.508,1.333-0.997,2.675-1.505,4.116l-0.055,0.155   c-0.46,1.314-0.905,2.633-1.345,3.991l-0.107,0.326c-0.412,1.286-0.811,2.579-1.2,3.89l-0.14,0.47   c-0.367,1.255-0.719,2.514-1.063,3.788l-0.164,0.606c-0.115,0.433-0.218,0.863-0.328,1.297c-0.007,0.025-0.013,0.051-0.019,0.076   c-0.196,0.769-0.399,1.539-0.583,2.302l-0.186,0.765c-0.078,0.329-0.148,0.664-0.225,0.994c-0.041,0.178-0.08,0.357-0.121,0.536   c-0.156,0.688-0.318,1.372-0.468,2.067l-0.189,0.872c-0.056,0.263-0.103,0.526-0.157,0.79c-0.055,0.266-0.105,0.532-0.158,0.798   c-0.125,0.629-0.256,1.259-0.375,1.885l-0.058,0.3c-0.05,0.256-0.1,0.512-0.14,0.732c-0.035,0.193-0.066,0.39-0.101,0.584   c-0.065,0.365-0.126,0.733-0.189,1.1c-0.097,0.563-0.197,1.125-0.291,1.691l-0.19,1.158c-0.02,0.133-0.038,0.27-0.059,0.402   c-0.07,0.456-0.133,0.915-0.2,1.372c-0.072,0.505-0.149,1.003-0.221,1.515l-0.176,1.264c-0.014,0.102-0.023,0.205-0.036,0.307   c-0.071,0.55-0.131,1.103-0.196,1.653c-0.048,0.412-0.101,0.82-0.146,1.235l-0.161,1.407c-0.007,0.067-0.012,0.136-0.019,0.203   c-0.066,0.645-0.118,1.293-0.179,1.939c-0.027,0.321-0.06,0.641-0.088,0.963l-0.047,0.521c-0.03,0.323-0.06,0.646-0.084,0.963   c-0.002,0.02-0.002,0.039-0.004,0.059c-0.049,0.632-0.085,1.268-0.127,1.901c-0.019,0.296-0.042,0.59-0.06,0.885l-0.054,0.852   c-0.021,0.311-0.042,0.62-0.059,0.946c-0.001,0.013-0.001,0.025-0.002,0.037c-0.036,0.707-0.057,1.419-0.084,2.129   c-0.012,0.315-0.027,0.63-0.038,0.945l-0.025,0.659c-0.012,0.285-0.023,0.571-0.031,0.868C0.022,199.9,0,201.456,0,203.016v4.103   c0,21.687,17.642,39.329,39.329,39.329h80.906h52.763v152.323c0,43.143,35.1,78.243,78.242,78.243s78.241-35.1,78.241-78.243   V246.448h34.399v-15h-34.399H172.998h-53.014c-1.644-24.723-11.378-48.256-27.829-66.946   c-15.682-17.817-36.475-30.166-59.346-35.423c26.959-52.562,81.72-88.613,144.741-88.613h137.325   c-0.255,3.401-0.394,6.805-0.394,10.185c0,74.995,61.014,136.009,136.009,136.009c12.108,0,24.053-1.589,35.624-4.724   c0.897,6.902,1.365,13.938,1.365,21.081v4.103c0,13.415-10.914,24.329-24.329,24.329h-79.268v15h79.268   c21.687,0,39.329-17.643,39.329-39.329v-4.103C502.479,194.276,501.834,185.684,500.607,177.279z M208.369,246.448v119.815h15   V246.448h20.371v155.187h15V246.448h20.37v102.525h15V246.448h20.371v152.323c0,34.872-28.37,63.243-63.241,63.243   c-34.872,0-63.242-28.371-63.242-63.243V246.448H208.369z M104.946,231.448H39.329C25.914,231.448,15,220.534,15,207.119v-4.103   c0-1.421,0.019-2.839,0.056-4.243c0.017-0.663,0.05-1.322,0.075-1.982c0.026-0.75,0.052-1.5,0.088-2.234   c0.042-0.813,0.101-1.62,0.154-2.43c0.037-0.603,0.073-1.205,0.121-1.81c0.054-0.699,0.123-1.396,0.186-2.093   c0.059-0.668,0.116-1.334,0.182-1.981c0.095-0.919,0.205-1.834,0.314-2.749c0.053-0.452,0.104-0.904,0.162-1.358   c0.131-1.018,0.276-2.031,0.427-3.043c0.048-0.331,0.094-0.662,0.144-0.993c0.167-1.082,0.349-2.158,0.537-3.233   c0.043-0.253,0.085-0.505,0.131-0.76c0.212-1.181,0.438-2.356,0.677-3.527c0.025-0.124,0.049-0.248,0.074-0.371   c0.265-1.288,0.544-2.57,0.84-3.847c0.001-0.005,0.002-0.01,0.003-0.014c1.852-8.004,4.302-15.781,7.291-23.288   C69.313,151.491,101.588,187.968,104.946,231.448z M450.49,171.659c-66.725,0-121.009-54.284-121.009-121.009   c0-3.35,0.142-6.728,0.423-10.102c1.016,0.031,2.03,0.066,3.041,0.116c0.125,0.006,0.25,0.009,0.375,0.015   c1.289,0.066,2.574,0.149,3.855,0.246c0.347,0.025,0.691,0.058,1.037,0.086c0.949,0.077,1.896,0.159,2.841,0.253   c0.393,0.039,0.784,0.081,1.177,0.123c0.929,0.099,1.855,0.204,2.78,0.318c0.349,0.043,0.696,0.086,1.044,0.132   c1.07,0.14,2.139,0.289,3.204,0.449c0.177,0.027,0.354,0.051,0.532,0.078c66.037,10.179,119.084,60.249,133.684,124.74   C472.784,170.128,461.718,171.659,450.49,171.659z"/>
	<rect x="279.11" y="368.974" style="fill:#0F2639;" width="15" height="32.66"/>
	<path style="fill:#0F2639;" d="M191.839,150.277c0,31.764,25.842,57.604,57.605,57.604c31.765,0,57.606-25.841,57.606-57.604   c0-31.765-25.842-57.606-57.606-57.606C217.681,92.67,191.839,118.512,191.839,150.277z M292.051,150.277   c0,23.492-19.113,42.604-42.606,42.604s-42.605-19.112-42.605-42.604c0-23.493,19.112-42.606,42.605-42.606   S292.051,126.784,292.051,150.277z"/>
	<path style="fill:#0F2639;" d="M105.682,103.748c0,19.444,15.819,35.264,35.264,35.264c19.444,0,35.263-15.819,35.263-35.264   c0-19.444-15.818-35.263-35.263-35.263C121.501,68.485,105.682,84.303,105.682,103.748z M161.208,103.748   c0,11.174-9.09,20.264-20.263,20.264c-11.174,0-20.264-9.09-20.264-20.264c0-11.173,9.09-20.263,20.264-20.263   C152.118,83.485,161.208,92.575,161.208,103.748z"/>
</g>















</svg>
