<?xml version="1.0" encoding="iso-8859-1"?>
<!-- Generator: Adobe Illustrator 18.0.0, SVG Export Plug-In . SVG Version: 6.00 Build 0)  -->
<!DOCTYPE svg PUBLIC "-//W3C//DTD SVG 1.1//EN" "http://www.w3.org/Graphics/SVG/1.1/DTD/svg11.dtd">
<svg version="1.1" id="Capa_1" xmlns="http://www.w3.org/2000/svg" xmlns:xlink="http://www.w3.org/1999/xlink" x="0px" y="0px"
	 viewBox="0 0 451.065 451.065" style="enable-background:new 0 0 451.065 451.065;" xml:space="preserve">
<path d="M390.29,49.383C371.904,27.55,335.26,11.503,287.11,4.199c-48.068-7.292-102.327-5.034-152.78,6.358
	c-56.092,12.666-82.94,50.39-95.586,79.806c-14.033,32.645-14.013,61.55-13.986,61.783c0.053,0.479,0.164,0.949,0.33,1.4
	c0.39,1.064,4.317,10.69,21.855,20.969c21.73,12.737,54.473,21.167,97.317,25.074c-3.1,39.281-13.297,78.586-30.443,117.175
	c-5.049,11.363-7.608,23.357-7.608,35.649c0,54.397,50.766,98.652,113.164,98.652s113.164-44.255,113.164-98.652
	c0-12.292-2.56-24.287-7.608-35.649c-16.771-37.744-26.893-76.172-30.229-114.594c79.349-4.736,123.529-19.278,131.314-43.257
	c0.209-0.644,0.303-1.3,0.293-1.945C426.363,152.303,426.358,92.216,390.29,49.383z M49.766,95.106
	c16.791-39.061,46.132-63.568,87.206-72.844c49.03-11.071,101.71-13.273,148.338-6.199c44.613,6.768,79.531,21.729,95.8,41.049
	c27.023,32.09,32.061,76.32,32.99,93.059c-7.454-3.156-19.559-8.094-33.479-13.041c-8.199-2.914-15.955-5.456-23.279-7.644
	c-0.009-20.131-5.994-41.388-6.263-42.328c-0.605-2.125-2.82-3.356-4.943-2.75c-2.124,0.605-3.355,2.818-2.75,4.943
	c0.06,0.21,5.479,19.445,5.927,37.834c-16.944-4.641-31.267-7.145-42.764-7.447c-27.204-0.72-68.676,6.819-101.996,12.873
	c-19.359,3.518-36.078,6.555-45.738,7.229c-16.36,1.14-32.624-1.616-48.354-4.284c-6.717-1.139-13.35-2.261-19.869-3.066
	c0.081-7.505,1.215-25.741,9.855-36.3c1.399-1.71,1.147-4.23-0.563-5.629c-1.709-1.399-4.229-1.148-5.629,0.563
	c-10.009,12.232-11.525,31.715-11.666,40.556c-6.848-0.52-13.548-0.523-20.066,0.347c1.345-11.052,6.191-27.592,6.248-27.784
	c0.624-2.119-0.587-4.343-2.706-4.968c-2.119-0.622-4.342,0.587-4.968,2.706c-0.257,0.874-5.798,19.78-6.772,31.652
	c-5.768,1.529-11.37,3.921-16.779,7.441C38.797,130.559,41.929,113.338,49.766,95.106z M320.537,352.414
	c0,47.78-45.382,86.652-101.164,86.652s-101.164-38.872-101.164-86.652c0-10.603,2.212-20.958,6.575-30.777
	c21.563-48.529,32.495-98.216,32.495-147.68c0-1.944,1.52-3.568,3.46-3.698l109-7.273c0.253-0.017,0.503-0.025,0.752-0.025
	c6.052,0,10.976,4.933,10.976,10.997c0,49.463,10.933,99.15,32.495,147.68C318.325,331.456,320.537,341.81,320.537,352.414z
	 M293.881,190.201c-0.271-5.417-0.414-10.832-0.414-16.244c0-13.194-11.16-23.835-24.526-22.944l-109,7.273
	c-8.221,0.548-14.661,7.432-14.661,15.672c0,4.548-0.097,9.098-0.289,13.649c-81.249-7.485-102.941-30.008-107.589-36.542
	c20.22-16.351,44.21-12.286,71.723-7.62c16.191,2.745,32.935,5.586,50.247,4.376c10.1-0.705,27.02-3.779,46.611-7.338
	c32.958-5.988,73.961-13.438,100.355-12.747c34.363,0.904,89.234,23.213,106.749,30.705
	C403.185,174.567,359.547,186.242,293.881,190.201z"/>
<g>
</g>
<g>
</g>
<g>
</g>
<g>
</g>
<g>
</g>
<g>
</g>
<g>
</g>
<g>
</g>
<g>
</g>
<g>
</g>
<g>
</g>
<g>
</g>
<g>
</g>
<g>
</g>
<g>
</g>
</svg>
