<?xml version="1.0" encoding="iso-8859-1"?>
<!-- Generator: Adobe Illustrator 19.0.0, SVG Export Plug-In . SVG Version: 6.00 Build 0)  -->
<svg version="1.1" id="Layer_1" xmlns="http://www.w3.org/2000/svg" xmlns:xlink="http://www.w3.org/1999/xlink" x="0px" y="0px"
	 viewBox="0 0 511.989 511.989" style="enable-background:new 0 0 511.989 511.989;" xml:space="preserve">
<path style="fill:#F6BB42;" d="M416.835,0H96.686C73.124,0,54.031,19.109,54.031,42.671V240.98
	c0,23.562,19.093,42.671,42.655,42.671h320.149c23.562,0,42.671-19.109,42.671-42.671V42.671C459.506,19.11,440.397,0,416.835,0z
	 M438.179,240.98c0,11.766-9.578,21.343-21.344,21.343H96.686c-11.75,0-21.328-9.578-21.328-21.343V42.671
	c0-11.765,9.578-21.327,21.328-21.327h320.149c11.766,0,21.344,9.562,21.344,21.327L438.179,240.98L438.179,240.98z"/>
<path style="fill:#E6E9ED;" d="M119.795,230.777c-6.312,31.484-23.484,30.406-44.108,26.265
	c-20.625-4.125-36.905-9.734-30.593-41.218s32.796-76.92,53.42-72.795C119.138,147.169,126.092,199.293,119.795,230.777z"/>
<path style="fill:#FC6E51;" d="M171.231,168.731c-4.312,21.562-38.687,18.5-80.201,10.187c-41.5-8.312-74.405-18.718-70.092-40.28
	c4.312-21.562,44.233-46.108,85.732-37.796S175.559,147.169,171.231,168.731z"/>
<g style="opacity:0.1;">
	<path style="fill:#FFFFFF;" d="M106.67,100.842c-9.406-1.875-18.718-2.078-27.562-1c2.078,0.25,4.156,0.578,6.234,1
		c41.499,8.312,68.874,46.327,64.561,67.889c-1.938,9.703-9.969,14.421-22,15.921c23.546,2.016,40.39-1.25,43.327-15.921
		C175.559,147.169,148.169,109.155,106.67,100.842z"/>
</g>
<path style="fill:#CCD1D9;" d="M341.509,187.606c30.843,22.828,20.656,41.249,5.344,61.937
	c-15.312,20.687-29.938,35.812-60.796,12.984c-30.843-22.828-66.217-74.967-50.905-95.654
	C250.464,146.185,310.665,164.778,341.509,187.606z"/>
<path style="fill:#965353;" d="M301.212,99.561c21.125,15.625-0.25,52.03-31.061,93.654c-30.796,41.624-59.374,72.702-80.499,57.062
	c-21.125-15.625-26.796-72.062,4.016-113.67C224.48,94.983,280.088,83.92,301.212,99.561z"/>
<g style="opacity:0.1;">
	<path style="fill:#FFFFFF;" d="M301.212,99.561c-8.14-6.031-21.421-8.094-36.436-5.953c5.984,1.031,11.155,3.016,15.108,5.953
		c21.124,15.625-0.266,52.03-31.061,93.654c-20.531,27.733-40.062,50.78-57.062,58.452c20.89,12.187,48.593-18.203,78.389-58.452
		C300.962,151.591,322.337,115.186,301.212,99.561z"/>
</g>
<path style="fill:#E6E9ED;" d="M403.335,236.98c-16.999,39.937-36.655,34.968-59.373,25.281
	c-22.719-9.671-39.922-20.406-22.906-60.327c17.016-39.937,61.796-93.967,84.514-84.28
	C428.288,127.326,420.35,197.043,403.335,236.98z"/>
<path style="fill:#ED5564;" d="M482.239,166.356c-11.64,27.343-50.686,16.218-96.403-3.25
	c-45.718-19.484-80.796-39.921-69.14-67.265c11.641-27.343,65.608-51.233,111.326-31.765
	C473.74,83.545,493.895,139.013,482.239,166.356z"/>
<g style="opacity:0.2;">
	<path style="fill:#FFFFFF;" d="M428.022,64.078c-15.172-6.469-31.266-8.141-46.405-6.516c8.421,0.938,16.874,3.031,25.077,6.516
		c45.703,19.468,65.858,74.936,54.218,102.279c-3.671,8.625-10.077,13.421-18.546,15.343c19.155,3.016,33.546-0.484,39.873-15.343
		C493.895,139.013,473.74,83.545,428.022,64.078z"/>
</g>
<path style="fill:#FFCE54;" d="M491.427,447.991c0,35.344-28.655,63.998-63.998,63.998H86.108
	c-35.343,0-63.999-28.654-63.999-63.998V191.996h469.317v255.995H491.427z"/>
<g>
	<path style="fill:#F6BB42;" d="M452.866,462.022l38.561-38.562v-43.561l-38.561-38.562l38.561-38.561v-43.562l-21.718-21.719
		l-15.077,15.094l28.404,28.406l-45.248,45.248l-45.266-45.248l27.812-27.812l-15.094-15.078l-27.796,27.796l-28.03-28.031
		l-15.094,15.094l28.032,28.031l-45.25,45.248l-45.248-45.248l28.264-28.265l-15.093-15.078l-28.264,28.25l-27.797-27.796
		l-15.078,15.078l27.797,27.811l-45.249,45.248l-45.265-45.248l27.812-27.812l-15.094-15.078l-27.795,27.796l-28.125-28.109
		L92.889,252.87l28.109,28.125l-45.249,45.248L30.5,280.995l28.265-28.265l-15.093-15.078L22.11,259.214v43.562l38.562,38.561
		L22.11,379.899v43.561l38.562,38.562l-25.171,25.156c4.391,5.656,9.688,10.562,15.703,14.467l24.546-24.561l34.906,34.904h50.874
		l34.906-34.889l34.89,34.889H282.2l34.905-34.904l34.906,34.904h50.873l34.906-34.904l24.546,24.561
		c6-3.904,11.312-8.811,15.703-14.467L452.866,462.022z M377.445,296.089l45.249,45.248l-45.249,45.25l-45.249-45.25
		L377.445,296.089z M256.761,296.089l45.263,45.248l-45.263,45.25l-45.25-45.25L256.761,296.089z M136.092,296.089l45.249,45.248
		l-45.249,45.25l-45.249-45.25L136.092,296.089z M75.749,446.929L30.5,401.681l45.249-45.25l45.249,45.25L75.749,446.929z
		 M136.092,507.27l-45.249-45.248l45.249-45.266l45.249,45.266L136.092,507.27z M151.169,401.681l45.265-45.25l45.249,45.25
		l-45.249,45.248L151.169,401.681z M256.761,507.27l-45.25-45.248l45.25-45.266l45.263,45.266L256.761,507.27z M271.854,401.681
		l45.248-45.25l45.25,45.25l-45.25,45.248L271.854,401.681z M377.445,507.27l-45.249-45.248l45.249-45.266l45.249,45.266
		L377.445,507.27z M392.522,401.681l45.266-45.266l45.248,45.266l-45.248,45.248L392.522,401.681z"/>
	<rect x="22.112" y="234.665" style="fill:#F6BB42;" width="469.32" height="21.328"/>
	<path style="fill:#F6BB42;" d="M63.937,202.668c5.89,0,10.671-4.781,10.671-10.672H53.265
		C53.265,197.887,58.046,202.668,63.937,202.668z"/>
	<path style="fill:#F6BB42;" d="M106.78,202.668c5.891,0,10.671-4.781,10.671-10.672H96.123
		C96.123,197.887,100.889,202.668,106.78,202.668z"/>
	<path style="fill:#F6BB42;" d="M149.638,202.668c5.891,0,10.671-4.781,10.671-10.672h-21.343
		C138.966,197.887,143.747,202.668,149.638,202.668z"/>
	<path style="fill:#F6BB42;" d="M192.496,202.668c5.891,0,10.656-4.781,10.656-10.672h-21.328
		C181.825,197.887,186.606,202.668,192.496,202.668z"/>
	<path style="fill:#F6BB42;" d="M235.339,202.668c5.891,0,10.672-4.781,10.672-10.672h-21.343
		C224.668,197.887,229.449,202.668,235.339,202.668z"/>
	<path style="fill:#F6BB42;" d="M278.197,202.668c5.891,0,10.656-4.781,10.656-10.672h-21.327
		C267.526,197.887,272.307,202.668,278.197,202.668z"/>
	<path style="fill:#F6BB42;" d="M321.04,202.668c5.891,0,10.672-4.781,10.672-10.672h-21.328
		C310.384,197.887,315.149,202.668,321.04,202.668z"/>
	<path style="fill:#F6BB42;" d="M363.899,202.668c5.89,0,10.655-4.781,10.655-10.672h-21.327
		C353.227,197.887,358.009,202.668,363.899,202.668z"/>
	<path style="fill:#F6BB42;" d="M406.741,202.668c5.891,0,10.672-4.781,10.672-10.672h-21.328
		C396.085,197.887,400.85,202.668,406.741,202.668z"/>
	<path style="fill:#F6BB42;" d="M449.6,202.668c5.891,0,10.655-4.781,10.655-10.672h-21.327
		C438.929,197.887,443.71,202.668,449.6,202.668z"/>
</g>
<g>
</g>
<g>
</g>
<g>
</g>
<g>
</g>
<g>
</g>
<g>
</g>
<g>
</g>
<g>
</g>
<g>
</g>
<g>
</g>
<g>
</g>
<g>
</g>
<g>
</g>
<g>
</g>
<g>
</g>
</svg>
