<?xml version="1.0" encoding="iso-8859-1"?>
<!-- Generator: Adobe Illustrator 19.0.0, SVG Export Plug-In . SVG Version: 6.00 Build 0)  -->
<svg version="1.1" id="Layer_1" xmlns="http://www.w3.org/2000/svg" xmlns:xlink="http://www.w3.org/1999/xlink" x="0px" y="0px"
	 viewBox="0 0 512 512" style="enable-background:new 0 0 512 512;" xml:space="preserve">
<path style="fill:#F9DCB2;" d="M483.556,52.345c0,0-175.218,177.489-175.218,352.707v54.616c0,28.907-23.425,52.332-52.332,52.332
	c-28.907,0-52.345-23.425-52.345-52.332v-54.616c0-175.218-175.218-352.707-175.218-352.707S80.788,9.098,133.12,31.864
	c0,0,43.233-31.864,122.886-31.864c79.64,0,122.873,31.864,122.873,31.864c7.512-3.274,15.037-5.177,22.397-6.053
	C445.183,20.633,483.556,52.345,483.556,52.345z"/>
<g>
	<path style="fill:#DDBB8E;" d="M229.295,489.945c0,5.266,0.305,10.38,0.863,15.24c-15.824-9.01-26.496-26.014-26.496-45.518
		v-54.616c0-175.218-175.218-352.707-175.218-352.707S80.788,9.098,133.12,31.864c0,0,2.931-2.157,8.68-5.355
		c12.905,30.81,87.495,216.84,87.495,400.699L229.295,489.945L229.295,489.945z"/>
	<path style="fill:#DDBB8E;" d="M290.402,295.352c-0.348,0-0.702-0.029-1.056-0.089c-3.457-0.579-5.789-3.85-5.209-7.305
		c14.498-86.549,41.127-163.38,55.71-201.474c1.254-3.273,4.925-4.908,8.194-3.657c3.273,1.252,4.911,4.921,3.658,8.194
		c-14.414,37.651-40.732,113.576-55.046,199.035C296.132,293.155,293.446,295.352,290.402,295.352z"/>
	<path style="fill:#DDBB8E;" d="M410.743,56.887L378.88,31.864c7.512-3.274,15.037-5.177,22.397-6.053L410.743,56.887z"/>
</g>
<path style="fill:#F9DCB2;" d="M101.257,56.887l31.864-25.024c-7.512-3.274-15.037-5.177-22.397-6.053L101.257,56.887z"/>
<path style="fill:#DDBB8E;" d="M256.006,211.142c-3.504,0-6.345-2.841-6.345-6.345V72.813c0-3.504,2.841-6.345,6.345-6.345
	c3.505,0,6.345,2.841,6.345,6.345v131.985C262.351,208.301,259.511,211.142,256.006,211.142z"/>
<g>
</g>
<g>
</g>
<g>
</g>
<g>
</g>
<g>
</g>
<g>
</g>
<g>
</g>
<g>
</g>
<g>
</g>
<g>
</g>
<g>
</g>
<g>
</g>
<g>
</g>
<g>
</g>
<g>
</g>
</svg>
