<?xml version="1.0" encoding="iso-8859-1"?>
<!-- Generator: Adobe Illustrator 19.0.0, SVG Export Plug-In . SVG Version: 6.00 Build 0)  -->
<svg version="1.1" id="Capa_1" xmlns="http://www.w3.org/2000/svg" xmlns:xlink="http://www.w3.org/1999/xlink" x="0px" y="0px"
	 viewBox="0 0 460 460" style="enable-background:new 0 0 460 460;" xml:space="preserve">
<g id="XMLID_1349_">
	<rect id="XMLID_1350_" x="200" y="390" style="fill:#A78966;" width="60" height="50"/>
	<path id="XMLID_1357_" style="fill:#3FA45A;" d="M230,20c-28.325,0-53.193,14.734-67.409,36.943C152.634,52.494,141.611,50,130,50
		c-44.183,0-80,35.817-80,80c0,7.223,0.974,14.216,2.768,20.872C21.346,167.863,0,201.104,0,239.333
		c0,37.875,20.955,70.851,51.9,87.982C59.815,363.17,91.765,390,130,390h100V20z M110,310c-11.046,0-20-8.954-20-20
		c0-11.046,8.954-20,20-20s20,8.954,20,20C130,301.046,121.046,310,110,310z M170,350c-11.046,0-20-8.954-20-20
		c0-11.046,8.954-20,20-20s20,8.954,20,20C190,341.046,181.046,350,170,350z"/>
	<path id="XMLID_1366_" style="fill:#317F46;" d="M407.034,151.569C408.952,144.705,410,137.477,410,130c0-44.183-35.817-80-80-80
		c-11.611,0-22.634,2.494-32.591,6.943C283.193,34.734,258.325,20,230,20v370h100c38.15,0,70.041-26.712,78.045-62.448
		C439.009,310.557,460,277.648,460,239.833C460,201.609,438.55,168.399,407.034,151.569z M330,270c-11.046,0-20-8.954-20-20
		c0-11.046,8.954-20,20-20s20,8.954,20,20C350,261.046,341.046,270,330,270z"/>
	<circle id="XMLID_1371_" style="fill:#317F46;" cx="170" cy="330" r="20"/>
	<circle id="XMLID_1374_" style="fill:#3FA45A;" cx="330" cy="250" r="20"/>
	<circle id="XMLID_1377_" style="fill:#317F46;" cx="110" cy="290" r="20"/>
</g>
<g>
</g>
<g>
</g>
<g>
</g>
<g>
</g>
<g>
</g>
<g>
</g>
<g>
</g>
<g>
</g>
<g>
</g>
<g>
</g>
<g>
</g>
<g>
</g>
<g>
</g>
<g>
</g>
<g>
</g>
</svg>
